<svg xmlns="http://www.w3.org/2000/svg" viewBox="0 0 1440 120" width="100%">
  <defs>
    <linearGradient id="wave-grad" x1="0%" y1="0%" x2="100%" y2="0%">
      <stop offset="0%" style="stop-color:#58a6ff;stop-opacity:0.3"/>
      <stop offset="50%" style="stop-color:#bc8cff;stop-opacity:0.3"/>
      <stop offset="100%" style="stop-color:#f778ba;stop-opacity:0.3"/>
    </linearGradient>
  </defs>
  <path fill="url(#wave-grad)" d="M0,64L48,58.7C96,53,192,43,288,48C384,53,480,75,576,80C672,85,768,75,864,58.7C960,43,1056,21,1152,16C1248,11,1344,21,1392,26.7L1440,32L1440,120L1392,120C1344,120,1248,120,1152,120C1056,120,960,120,864,120C768,120,672,120,576,120C480,120,384,120,288,120C192,120,96,120,48,120L0,120Z">
    <animate attributeName="d" 
      values="M0,64L48,58.7C96,53,192,43,288,48C384,53,480,75,576,80C672,85,768,75,864,58.7C960,43,1056,21,1152,16C1248,11,1344,21,1392,26.7L1440,32L1440,120L1392,120C1344,120,1248,120,1152,120C1056,120,960,120,864,120C768,120,672,120,576,120C480,120,384,120,288,120C192,120,96,120,48,120L0,120Z;
             M0,32L48,37.3C96,43,192,53,288,58.7C384,64,480,64,576,53.3C672,43,768,21,864,21.3C960,21,1056,43,1152,53.3C1248,64,1344,64,1392,64L1440,64L1440,120L1392,120C1344,120,1248,120,1152,120C1056,120,960,120,864,120C768,120,672,120,576,120C480,120,384,120,288,120C192,120,96,120,48,120L0,120Z;
             M0,64L48,58.7C96,53,192,43,288,48C384,53,480,75,576,80C672,85,768,75,864,58.7C960,43,1056,21,1152,16C1248,11,1344,21,1392,26.7L1440,32L1440,120L1392,120C1344,120,1248,120,1152,120C1056,120,960,120,864,120C768,120,672,120,576,120C480,120,384,120,288,120C192,120,96,120,48,120L0,120Z" 
      dur="8s" repeatCount="indefinite"/>
  </path>
</svg>
